<svg xmlns="http://www.w3.org/2000/svg" width="21.997" height="17.268" viewBox="0 0 21.997 17.268"><path d="M19.175,7.267A16.175,16.175,0,0,0,15.109,6a.086.086,0,0,0-.067.029c-.171.314-.371.724-.5,1.038a15.324,15.324,0,0,0-4.572,0,9.548,9.548,0,0,0-.514-1.038A.074.074,0,0,0,9.385,6,16.3,16.3,0,0,0,5.318,7.267c-.01,0-.019.01-.029.019A16.863,16.863,0,0,0,2.337,18.667a.052.052,0,0,0,.029.048,16.545,16.545,0,0,0,4.991,2.524.055.055,0,0,0,.067-.019,12.274,12.274,0,0,0,1.019-1.657.058.058,0,0,0-.038-.086,11.724,11.724,0,0,1-1.562-.743.067.067,0,0,1-.01-.1c.1-.076.21-.162.314-.238a.059.059,0,0,1,.067-.01,11.814,11.814,0,0,0,10.048,0,.059.059,0,0,1,.067.01c.1.086.21.162.314.248a.059.059,0,0,1-.01.1,10.208,10.208,0,0,1-1.562.743.067.067,0,0,0-.038.086,14.563,14.563,0,0,0,1.019,1.657.134.134,0,0,0,.086.01,16.479,16.479,0,0,0,5-2.524.052.052,0,0,0,.029-.048A16.758,16.758,0,0,0,19.213,7.286a.049.049,0,0,0-.038-.019ZM8.937,16.391a1.928,1.928,0,0,1-1.8-2.019,1.916,1.916,0,0,1,1.8-2.019,1.909,1.909,0,0,1,1.8,2.019A1.916,1.916,0,0,1,8.937,16.391Zm6.638,0a1.928,1.928,0,0,1-1.8-2.019,1.916,1.916,0,0,1,1.8-2.019,1.909,1.909,0,0,1,1.8,2.019A1.909,1.909,0,0,1,15.575,16.391Z" transform="translate(-1.255 -5)" fill="none"  stroke-width="2"/></svg>