<svg xmlns="http://www.w3.org/2000/svg" xmlns:xlink="http://www.w3.org/1999/xlink" width="157.937" height="55" viewBox="0 0 157.937 55"><defs><clipPath id="a"><rect width="157.937" height="55" fill="lime"/></clipPath></defs><g clip-path="url(#a)"><path d="M157.937,27.491C157.937,44.149,145.689,55,127.815,55H118.1l2.913-8.976.47-1.474h5.7c10.855,0,17.965-6.518,17.965-17.059,0-8.721-4.885-14.692-12.754-16.476a22.642,22.642,0,0,0-5.21-.565h-7.906L115.64,21.628,108.186,44.55,104.785,55H91.217L79.186,17.751,66.775,55H53.261L48.412,40.162v-.491h-.163L44.939,29.53,38.679,10.359H25.364c-7.671.036-11.542,3.568-11.542,9.594,0,5.972,3.908,9.576,11.633,9.576h6.169l3.311,10.141h-10.8L13.587,55H0L12.266,37.322C5.156,34.245,1.013,28.2,1.013,19.953c0-11.561,8.015-18.97,21-19.863C22.9.036,23.808,0,24.749,0H48.412l9.426,29.53L58.851,32.7l1.9,5.953L73.631,0H85.355L97.838,38.96l5.138-15.712L110.574,0h17.241a37.931,37.931,0,0,1,7.906.783c13.478,2.731,22.216,12.635,22.216,26.708" transform="translate(0 0)" fill="lime"/></g></svg>